<?xml version="1.0" encoding="UTF-8"?><svg id="a" xmlns="http://www.w3.org/2000/svg" viewBox="0 0 267.26 49.67" fill="#CCCCCC"><polygon points="9.97 49.67 42.25 49.67 26.11 37.94 9.97 49.67"/><polygon points="53.76 18.97 73.71 18.97 79.87 0 26.11 0 32.28 18.97 52.23 18.97 36.09 30.7 42.25 49.67 63.73 49.67 69.9 30.7 53.76 18.97"/><polygon points="117.49 49.67 149.77 49.67 133.63 37.94 117.49 49.67"/><polygon points="107.52 18.97 127.47 18.97 133.63 0 79.87 0 86.04 18.97 105.98 18.97 89.85 30.7 96.01 49.67 117.49 49.67 123.66 30.7 107.52 18.97"/><polygon points="171.25 49.67 203.53 49.67 187.39 37.94 171.25 49.67"/><polygon points="63.73 49.67 96.01 49.67 79.87 37.94 63.73 49.67"/><polygon points="161.28 18.97 181.22 18.97 187.39 0 133.63 0 139.79 18.97 159.74 18.97 143.6 30.7 149.77 49.67 171.25 49.67 177.41 30.7 161.28 18.97"/><polygon points="0 18.97 0 49.67 9.97 49.67 16.14 30.7 0 18.97"/><polygon points="26.11 0 0 0 0 18.97 19.95 18.97 26.11 0"/><polygon points="241.15 0 247.31 18.97 267.26 18.97 267.26 0 241.15 0"/><polygon points="257.29 49.67 267.26 49.67 267.26 18.97 251.12 30.7 257.29 49.67"/><polygon points="225.01 49.67 257.29 49.67 241.15 37.94 225.01 49.67"/><polygon points="215.03 18.97 234.98 18.97 241.15 0 187.39 0 193.55 18.97 213.5 18.97 197.36 30.7 203.53 49.67 225.01 49.67 231.17 30.7 215.03 18.97"/></svg>