<?xml version="1.0" encoding="utf-8"?>
<!-- Generator: Adobe Illustrator 27.2.0, SVG Export Plug-In . SVG Version: 6.00 Build 0)  -->
<svg version="1.1" id="a" xmlns="http://www.w3.org/2000/svg" xmlns:xlink="http://www.w3.org/1999/xlink" x="0px" y="0px"
	 viewBox="0 0 267.3 49.7" style="enable-background:new 0 0 267.3 49.7;" xml:space="preserve">
<path d="M-1.8-0.3V50H269V-0.3H-1.8z M52.2,20.2c-0.1,0.4-0.3,0.7-0.6,1L40.5,31l3.3,14.6c0.1,0.5,0.1,0.9-0.1,1.2
	c-0.2,0.4-0.4,0.7-0.7,0.9s-0.7,0.3-1.1,0.4c-0.4,0-0.8-0.1-1.1-0.3l-12.7-7.6l-12.7,7.6c-0.4,0.2-0.7,0.3-1.1,0.3
	c-0.4,0-0.8-0.1-1.1-0.4c-0.3-0.2-0.5-0.5-0.7-0.9s-0.2-0.8-0.1-1.2l3.1-14.5L4.4,21.4c-0.4-0.3-0.6-0.7-0.6-1
	c-0.1-0.4-0.1-0.8,0-1.1c0.1-0.4,0.3-0.7,0.6-0.9C4.7,18.2,5.1,18,5.5,18l14.8-1.3L26.1,3c0.2-0.4,0.5-0.7,0.8-0.9
	c0.4-0.3,0.7-0.4,1.1-0.4s0.7,0.1,1.1,0.3s0.6,0.5,0.8,0.9l5.8,13.7l14.8,1.3c0.4,0,0.8,0.2,1.1,0.4c0.3,0.2,0.5,0.5,0.6,0.9
	S52.3,19.9,52.2,20.2z M105.1,20.2c-0.1,0.4-0.3,0.7-0.6,1L93.4,31l3.3,14.5c0.1,0.5,0.1,0.9-0.1,1.2c-0.1,0.4-0.4,0.7-0.7,0.9
	c-0.3,0.2-0.7,0.3-1.1,0.4c-0.4,0-0.8-0.1-1.2-0.3l-12.7-7.6l-12.8,7.7c-0.4,0.2-0.7,0.3-1.1,0.3s-0.8-0.1-1.1-0.4
	c-0.3-0.2-0.5-0.5-0.7-0.9C65,46.4,65,46,65.1,45.6l3.2-14.5l-11.1-9.7c-0.4-0.3-0.6-0.7-0.6-1c-0.1-0.4-0.1-0.8,0-1.1
	c0.1-0.4,0.3-0.7,0.6-0.9c0.3-0.2,0.7-0.4,1.2-0.4l14.8-1.4L79,2.8c0.2-0.4,0.5-0.7,0.8-0.9c0.4-0.2,0.7-0.3,1.1-0.3
	s0.7,0.1,1.1,0.3c0.3,0.2,0.6,0.5,0.8,0.9l5.6,13.7l14.8,1.3c0.5,0,0.8,0.2,1.1,0.4c0.3,0.2,0.5,0.5,0.6,0.9
	C105.1,19.5,105.1,19.9,105.1,20.2z M157.9,20.2c-0.1,0.4-0.3,0.7-0.6,1L146.1,31l3.3,14.5c0.1,0.5,0,0.9-0.1,1.2
	c-0.2,0.4-0.4,0.7-0.7,0.9s-0.7,0.3-1.1,0.4c-0.4,0-0.8-0.1-1.2-0.3l-12.7-7.6l-12.7,7.6c-0.4,0.2-0.8,0.3-1.1,0.3
	c-0.4,0-0.8-0.1-1.1-0.4c-0.3-0.2-0.5-0.5-0.7-0.9c-0.1-0.4-0.2-0.8-0.1-1.2l3.3-14.5L110,21.4c-0.4-0.3-0.6-0.7-0.6-1
	c-0.1-0.4,0-0.8,0-1.1c0.1-0.4,0.3-0.7,0.6-0.9c0.3-0.2,0.7-0.4,1.2-0.4l14.8-1.3L131.8,3c0.2-0.4,0.5-0.7,0.8-0.9
	c0.4-0.2,0.7-0.3,1.1-0.3c0.4,0,0.7,0.1,1.1,0.3c0.4,0.2,0.6,0.5,0.8,0.9l5.8,13.7l14.8,1.3c0.5,0,0.8,0.2,1.2,0.4
	c0.3,0.2,0.5,0.5,0.6,0.9C157.9,19.5,158,19.9,157.9,20.2z M210.7,20.8c-0.1,0.4-0.3,0.7-0.6,1L199,31.6l3.3,14.5
	c0.1,0.4,0.1,0.9-0.1,1.2c-0.2,0.4-0.4,0.7-0.7,0.9s-0.7,0.4-1.1,0.4c-0.4,0-0.8-0.1-1.1-0.3l-12.7-7.6l-12.9,7.6
	c-0.4,0.2-0.7,0.3-1.1,0.3c-0.4,0-0.8-0.1-1.1-0.4c-0.3-0.2-0.5-0.5-0.7-0.9s-0.2-0.8-0.1-1.2l3.3-14.5l-11.1-9.7
	c-0.4-0.3-0.6-0.7-0.6-1c-0.1-0.4-0.1-0.8,0-1.1c0.1-0.4,0.3-0.7,0.6-0.9c0.3-0.2,0.7-0.4,1.1-0.4l14.8-1.3l5.8-13.7
	c0.2-0.4,0.5-0.7,0.8-0.9c0.4-0.2,0.7-0.3,1.1-0.3c0.4,0,0.7,0.1,1.1,0.3c0.4,0.2,0.6,0.5,0.8,0.9l5.8,13.7l14.8,1.3
	c0.5,0,0.8,0.2,1.2,0.4c0.3,0.2,0.5,0.6,0.6,0.9C210.8,20,210.8,20.4,210.7,20.8z M263.5,20.2c-0.1,0.4-0.3,0.7-0.6,1L251.7,31
	l3.3,14.5c0.1,0.5,0.1,0.9-0.1,1.2c-0.2,0.4-0.4,0.7-0.7,0.9s-0.7,0.3-1.1,0.4c-0.4,0-0.8-0.1-1.2-0.3l-12.7-7.6l-12.7,7.6
	c-0.4,0.2-0.7,0.3-1.1,0.3c-0.4,0-0.8-0.1-1.1-0.4c-0.3-0.2-0.5-0.5-0.7-0.9s-0.2-0.8-0.1-1.2l3.3-14.5l-11.1-9.7
	c-0.4-0.3-0.6-0.7-0.6-1c-0.1-0.4-0.1-0.8,0-1.1c0.1-0.4,0.3-0.7,0.6-0.9c0.3-0.2,0.7-0.4,1.1-0.4l14.8-1.3l5.7-13.7
	c0.2-0.4,0.5-0.7,0.8-0.9c0.4-0.2,0.7-0.3,1.1-0.3c0.3,0,0.7,0.1,1.1,0.3s0.6,0.5,0.8,0.9l5.8,13.7l14.8,1.3c0.5,0,0.8,0.2,1.1,0.4
	c0.3,0.2,0.5,0.5,0.6,0.9C263.6,19.5,263.6,19.9,263.5,20.2z"/>
</svg>
