<?xml version="1.0" encoding="UTF-8" standalone="no"?><svg xmlns="http://www.w3.org/2000/svg" xmlns:xlink="http://www.w3.org/1999/xlink" contentStyleType="text/css" height="571px" preserveAspectRatio="none" style="width:566px;height:571px;background:#FFFFFF;" version="1.1" viewBox="0 0 566 571" width="566px" zoomAndPan="magnify"><defs/><g><!--MD5=[3fd616f346a44cd59a91eb10b19e157c]
class User--><g id="elem_User"><rect codeLine="1" fill="#F1F1F1" height="129.4844" id="User" rx="2.5" ry="2.5" style="stroke:#181818;stroke-width:0.5;" width="136" x="100.5" y="15.5"/><ellipse cx="148.25" cy="31.5" fill="#ADD1B2" rx="11" ry="11" style="stroke:#181818;stroke-width:1.0;"/><path d="M152.3594,37.5 L144.6406,37.5 L144.6406,25.1094 L152.3594,25.1094 L152.3594,27.2656 L147.0938,27.2656 L147.0938,29.9375 L151.8594,29.9375 L151.8594,32.0938 L147.0938,32.0938 L147.0938,35.3438 L152.3594,35.3438 L152.3594,37.5 Z " fill="#000000"/><text fill="#000000" font-family="sans-serif" font-size="14" lengthAdjust="spacing" textLength="32" x="168.75" y="36.3467">User</text><line style="stroke:#181818;stroke-width:0.5;" x1="101.5" x2="235.5" y1="47.5" y2="47.5"/><ellipse cx="111.5" cy="61.1484" fill="#000000" rx="3" ry="3" style="stroke:#000000;stroke-width:1.0;"/><text fill="#000000" font-family="sans-serif" font-size="14" lengthAdjust="spacing" textLength="110" x="120.5" y="64.4951">pk (Primary Key)</text><line style="stroke:#181818;stroke-width:1.0;" x1="101.5" x2="235.5" y1="71.7969" y2="71.7969"/><text fill="#000000" font-family="sans-serif" font-size="14" lengthAdjust="spacing" textLength="70" x="106.5" y="88.792">username</text><text fill="#000000" font-family="sans-serif" font-size="14" lengthAdjust="spacing" textLength="41" x="106.5" y="105.0889">e-mail</text><text fill="#000000" font-family="sans-serif" font-size="14" lengthAdjust="spacing" textLength="67" x="106.5" y="121.3857">password</text><text fill="#000000" font-family="sans-serif" font-size="14" lengthAdjust="spacing" textLength="84" x="106.5" y="137.6826">permissions</text></g><!--MD5=[b291ed5d4f4aa9b1fb918b1fed177ebe]
class Profil--><g id="elem_Profil"><rect codeLine="10" fill="#F1F1F1" height="96.8906" id="Profil" rx="2.5" ry="2.5" style="stroke:#181818;stroke-width:0.5;" width="130" x="108.5" y="245.5"/><ellipse cx="152.75" cy="261.5" fill="#ADD1B2" rx="11" ry="11" style="stroke:#181818;stroke-width:1.0;"/><path d="M156.8594,267.5 L149.1406,267.5 L149.1406,255.1094 L156.8594,255.1094 L156.8594,257.2656 L151.5938,257.2656 L151.5938,259.9375 L156.3594,259.9375 L156.3594,262.0938 L151.5938,262.0938 L151.5938,265.3438 L156.8594,265.3438 L156.8594,267.5 Z " fill="#000000"/><text fill="#000000" font-family="sans-serif" font-size="14" lengthAdjust="spacing" textLength="33" x="173.25" y="266.3467">Profil</text><line style="stroke:#181818;stroke-width:0.5;" x1="109.5" x2="237.5" y1="277.5" y2="277.5"/><ellipse cx="119.5" cy="291.1484" fill="#000000" rx="3" ry="3" style="stroke:#000000;stroke-width:1.0;"/><text fill="#000000" font-family="sans-serif" font-size="14" lengthAdjust="spacing" textLength="17" x="128.5" y="294.4951">pk</text><line style="stroke:#181818;stroke-width:1.0;" x1="109.5" x2="237.5" y1="301.7969" y2="301.7969"/><text fill="#000000" font-family="sans-serif" font-size="14" lengthAdjust="spacing" textLength="43" x="114.5" y="318.792">Karma</text><text fill="#000000" font-family="sans-serif" font-size="14" lengthAdjust="spacing" textLength="118" x="114.5" y="335.0889">User (Cascading)</text></g><!--MD5=[eb0e8f8ddfdc21c3fdb48447501fec67]
class Review--><g id="elem_Review"><rect codeLine="17" fill="#F1F1F1" height="129.4844" id="Review" rx="2.5" ry="2.5" style="stroke:#181818;stroke-width:0.5;" width="137" x="7" y="435"/><ellipse cx="47.2" cy="451" fill="#ADD1B2" rx="11" ry="11" style="stroke:#181818;stroke-width:1.0;"/><path d="M51.3094,457 L43.5906,457 L43.5906,444.6094 L51.3094,444.6094 L51.3094,446.7656 L46.0438,446.7656 L46.0438,449.4375 L50.8094,449.4375 L50.8094,451.5938 L46.0438,451.5938 L46.0438,454.8438 L51.3094,454.8438 L51.3094,457 Z " fill="#000000"/><text fill="#000000" font-family="sans-serif" font-size="14" lengthAdjust="spacing" textLength="49" x="66.8" y="455.8467">Review</text><line style="stroke:#181818;stroke-width:0.5;" x1="8" x2="143" y1="467" y2="467"/><ellipse cx="18" cy="480.6484" fill="#000000" rx="3" ry="3" style="stroke:#000000;stroke-width:1.0;"/><text fill="#000000" font-family="sans-serif" font-size="14" lengthAdjust="spacing" textLength="17" x="27" y="483.9951">pk</text><line style="stroke:#181818;stroke-width:1.0;" x1="8" x2="143" y1="491.2969" y2="491.2969"/><text fill="#000000" font-family="sans-serif" font-size="14" lengthAdjust="spacing" textLength="33" x="13" y="508.292">Profil</text><text fill="#000000" font-family="sans-serif" font-size="14" lengthAdjust="spacing" textLength="30" x="13" y="524.5889">Text</text><text fill="#000000" font-family="sans-serif" font-size="14" lengthAdjust="spacing" textLength="35" x="13" y="540.8857">Likes</text><text fill="#000000" font-family="sans-serif" font-size="14" lengthAdjust="spacing" textLength="125" x="13" y="557.1826">Menu (Cascading)</text></g><!--MD5=[964f074a2dd77d134c21b891bb53e381]
class Image--><g id="elem_Image"><rect codeLine="26" fill="#F1F1F1" height="129.4844" id="Image" rx="2.5" ry="2.5" style="stroke:#181818;stroke-width:0.5;" width="137" x="179" y="435"/><ellipse cx="222.35" cy="451" fill="#ADD1B2" rx="11" ry="11" style="stroke:#181818;stroke-width:1.0;"/><path d="M226.4594,457 L218.7406,457 L218.7406,444.6094 L226.4594,444.6094 L226.4594,446.7656 L221.1938,446.7656 L221.1938,449.4375 L225.9594,449.4375 L225.9594,451.5938 L221.1938,451.5938 L221.1938,454.8438 L226.4594,454.8438 L226.4594,457 Z " fill="#000000"/><text fill="#000000" font-family="sans-serif" font-size="14" lengthAdjust="spacing" textLength="42" x="242.65" y="455.8467">Image</text><line style="stroke:#181818;stroke-width:0.5;" x1="180" x2="315" y1="467" y2="467"/><ellipse cx="190" cy="480.6484" fill="#000000" rx="3" ry="3" style="stroke:#000000;stroke-width:1.0;"/><text fill="#000000" font-family="sans-serif" font-size="14" lengthAdjust="spacing" textLength="17" x="199" y="483.9951">pk</text><line style="stroke:#181818;stroke-width:1.0;" x1="180" x2="315" y1="491.2969" y2="491.2969"/><text fill="#000000" font-family="sans-serif" font-size="14" lengthAdjust="spacing" textLength="33" x="185" y="508.292">Profil</text><text fill="#000000" font-family="sans-serif" font-size="14" lengthAdjust="spacing" textLength="42" x="185" y="524.5889">Image</text><text fill="#000000" font-family="sans-serif" font-size="14" lengthAdjust="spacing" textLength="35" x="185" y="540.8857">Likes</text><text fill="#000000" font-family="sans-serif" font-size="14" lengthAdjust="spacing" textLength="125" x="185" y="557.1826">Menu (Cascading)</text></g><!--MD5=[f0268dd29ee89052933f031546cb1cab]
class Menu--><g id="elem_Menu"><rect codeLine="35" fill="#F1F1F1" height="162.0781" id="Menu" rx="2.5" ry="2.5" style="stroke:#181818;stroke-width:0.5;" width="91" x="276" y="213"/><ellipse cx="300" cy="229" fill="#ADD1B2" rx="11" ry="11" style="stroke:#181818;stroke-width:1.0;"/><path d="M304.1094,235 L296.3906,235 L296.3906,222.6094 L304.1094,222.6094 L304.1094,224.7656 L298.8438,224.7656 L298.8438,227.4375 L303.6094,227.4375 L303.6094,229.5938 L298.8438,229.5938 L298.8438,232.8438 L304.1094,232.8438 L304.1094,235 Z " fill="#000000"/><text fill="#000000" font-family="sans-serif" font-size="14" lengthAdjust="spacing" textLength="39" x="316" y="233.8467">Menu</text><line style="stroke:#181818;stroke-width:0.5;" x1="277" x2="366" y1="245" y2="245"/><ellipse cx="287" cy="258.6484" fill="#000000" rx="3" ry="3" style="stroke:#000000;stroke-width:1.0;"/><text fill="#000000" font-family="sans-serif" font-size="14" lengthAdjust="spacing" textLength="17" x="296" y="261.9951">pk</text><line style="stroke:#181818;stroke-width:1.0;" x1="277" x2="366" y1="269.2969" y2="269.2969"/><text fill="#000000" font-family="sans-serif" font-size="14" lengthAdjust="spacing" textLength="40" x="282" y="286.292">Name</text><text fill="#000000" font-family="sans-serif" font-size="14" lengthAdjust="spacing" textLength="79" x="282" y="302.5889">Description</text><text fill="#000000" font-family="sans-serif" font-size="14" lengthAdjust="spacing" textLength="33" x="282" y="318.8857">Date</text><text fill="#000000" font-family="sans-serif" font-size="14" lengthAdjust="spacing" textLength="74" x="282" y="335.1826">Vegetarian</text><text fill="#000000" font-family="sans-serif" font-size="14" lengthAdjust="spacing" textLength="44" x="282" y="351.4795">Vegan</text><text fill="#000000" font-family="sans-serif" font-size="14" lengthAdjust="spacing" textLength="73" x="282" y="367.7764">MenuType</text></g><!--MD5=[0a8a9a553ad28d76d3a1fd3918a25a86]
class Rating--><g id="elem_Rating"><rect codeLine="46" fill="#F1F1F1" height="113.1875" id="Rating" rx="2.5" ry="2.5" style="stroke:#181818;stroke-width:0.5;" width="137" x="351" y="443"/><ellipse cx="393.45" cy="459" fill="#ADD1B2" rx="11" ry="11" style="stroke:#181818;stroke-width:1.0;"/><path d="M397.5594,465 L389.8406,465 L389.8406,452.6094 L397.5594,452.6094 L397.5594,454.7656 L392.2938,454.7656 L392.2938,457.4375 L397.0594,457.4375 L397.0594,459.5938 L392.2938,459.5938 L392.2938,462.8438 L397.5594,462.8438 L397.5594,465 Z " fill="#000000"/><text fill="#000000" font-family="sans-serif" font-size="14" lengthAdjust="spacing" textLength="44" x="413.55" y="463.8467">Rating</text><line style="stroke:#181818;stroke-width:0.5;" x1="352" x2="487" y1="475" y2="475"/><ellipse cx="362" cy="488.6484" fill="#000000" rx="3" ry="3" style="stroke:#000000;stroke-width:1.0;"/><text fill="#000000" font-family="sans-serif" font-size="14" lengthAdjust="spacing" textLength="17" x="371" y="491.9951">pk</text><line style="stroke:#181818;stroke-width:1.0;" x1="352" x2="487" y1="499.2969" y2="499.2969"/><text fill="#000000" font-family="sans-serif" font-size="14" lengthAdjust="spacing" textLength="33" x="357" y="516.292">Profil</text><text fill="#000000" font-family="sans-serif" font-size="14" lengthAdjust="spacing" textLength="125" x="357" y="532.5889">Menu (Cascading)</text><text fill="#000000" font-family="sans-serif" font-size="14" lengthAdjust="spacing" textLength="44" x="357" y="548.8857">Rating</text></g><!--MD5=[9b2f4a01f78858dfc31a490e8baf031d]
class MenuType--><g id="elem_MenuType"><rect codeLine="54" fill="#F1F1F1" height="80.5938" id="MenuType" rx="2.5" ry="2.5" style="stroke:#181818;stroke-width:0.5;" width="105" x="272" y="39.5"/><ellipse cx="287" cy="55.5" fill="#ADD1B2" rx="11" ry="11" style="stroke:#181818;stroke-width:1.0;"/><path d="M291.1094,61.5 L283.3906,61.5 L283.3906,49.1094 L291.1094,49.1094 L291.1094,51.2656 L285.8438,51.2656 L285.8438,53.9375 L290.6094,53.9375 L290.6094,56.0938 L285.8438,56.0938 L285.8438,59.3438 L291.1094,59.3438 L291.1094,61.5 Z " fill="#000000"/><text fill="#000000" font-family="sans-serif" font-size="14" lengthAdjust="spacing" textLength="73" x="301" y="60.3467">MenuType</text><line style="stroke:#181818;stroke-width:0.5;" x1="273" x2="376" y1="71.5" y2="71.5"/><ellipse cx="283" cy="85.1484" fill="#000000" rx="3" ry="3" style="stroke:#000000;stroke-width:1.0;"/><text fill="#000000" font-family="sans-serif" font-size="14" lengthAdjust="spacing" textLength="17" x="292" y="88.4951">pk</text><line style="stroke:#181818;stroke-width:1.0;" x1="273" x2="376" y1="95.7969" y2="95.7969"/><text fill="#000000" font-family="sans-serif" font-size="14" lengthAdjust="spacing" textLength="40" x="278" y="112.792">Name</text></g><!--MD5=[71b0b6a13faa744342078bce19fa38f0]
class Badge--><g id="elem_Badge"><rect codeLine="60" fill="#F1F1F1" height="145.7813" id="Badge" rx="2.5" ry="2.5" style="stroke:#181818;stroke-width:0.5;" width="147" x="412" y="7"/><ellipse cx="458.75" cy="23" fill="#ADD1B2" rx="11" ry="11" style="stroke:#181818;stroke-width:1.0;"/><path d="M462.8594,29 L455.1406,29 L455.1406,16.6094 L462.8594,16.6094 L462.8594,18.7656 L457.5938,18.7656 L457.5938,21.4375 L462.3594,21.4375 L462.3594,23.5938 L457.5938,23.5938 L457.5938,26.8438 L462.8594,26.8438 L462.8594,29 Z " fill="#000000"/><text fill="#000000" font-family="sans-serif" font-size="14" lengthAdjust="spacing" textLength="45" x="479.25" y="27.8467">Badge</text><line style="stroke:#181818;stroke-width:0.5;" x1="413" x2="558" y1="39" y2="39"/><ellipse cx="423" cy="52.6484" fill="#000000" rx="3" ry="3" style="stroke:#000000;stroke-width:1.0;"/><text fill="#000000" font-family="sans-serif" font-size="14" lengthAdjust="spacing" textLength="17" x="432" y="55.9951">pk</text><line style="stroke:#181818;stroke-width:1.0;" x1="413" x2="558" y1="63.2969" y2="63.2969"/><text fill="#000000" font-family="sans-serif" font-size="14" lengthAdjust="spacing" textLength="40" x="418" y="80.292">Name</text><text fill="#000000" font-family="sans-serif" font-size="14" lengthAdjust="spacing" textLength="79" x="418" y="96.5889">Description</text><text fill="#000000" font-family="sans-serif" font-size="14" lengthAdjust="spacing" textLength="42" x="418" y="112.8857">Image</text><text fill="#000000" font-family="sans-serif" font-size="14" lengthAdjust="spacing" textLength="135" x="418" y="129.1826">Condition_Category</text><text fill="#000000" font-family="sans-serif" font-size="14" lengthAdjust="spacing" textLength="42" x="418" y="145.4795">Count</text></g><!--MD5=[354736760d137f09a3832708086cc7d3]
link User to Profil--><g id="link_User_Profil"><path codeLine="70" d="M170.17,151.9 C170.83,179.97 171.58,211.74 172.2,238.02 " fill="none" id="User-Profil" style="stroke:#181818;stroke-width:1.0;"/><line style="stroke:#181818;stroke-width:1.0;" x1="176.2709" x2="168.2733" y1="241.1833" y2="241.3791"/><line style="stroke:#181818;stroke-width:1.0;" x1="176.1974" x2="168.1998" y1="238.1842" y2="238.38"/><line style="stroke:#181818;stroke-width:1.0;" x1="172.1741" x2="172.37" y1="237.2824" y2="245.28"/><line style="stroke:#181818;stroke-width:1.0;" x1="166.091" x2="174.0889" y1="148.6989" y2="148.519"/><line style="stroke:#181818;stroke-width:1.0;" x1="166.1584" x2="174.1564" y1="151.6982" y2="151.5183"/><line style="stroke:#181818;stroke-width:1.0;" x1="170.1799" x2="170" y1="152.608" y2="144.61"/></g><!--MD5=[c134a46b93aae93f7c718297a7c193d0]
link Profil to Review--><g id="link_Profil_Review"><path codeLine="71" d="M147.04,349.96 C135.55,373.81 121.95,402.05 109.71,427.47 " fill="none" id="Profil-Review" style="stroke:#181818;stroke-width:1.0;"/><line style="stroke:#181818;stroke-width:1.0;" x1="110.9073" x2="106.13" y1="424.9915" y2="434.9"/><ellipse cx="110.9073" cy="424.9915" fill="none" rx="4" ry="4" style="stroke:#181818;stroke-width:1.0;"/><line style="stroke:#181818;stroke-width:1.0;" x1="111.4703" x2="104.2641" y1="433.0341" y2="429.5597"/><line style="stroke:#181818;stroke-width:1.0;" x1="145.1797" x2="152.3859" y1="344.5759" y2="348.0503"/><line style="stroke:#181818;stroke-width:1.0;" x1="143.8768" x2="151.083" y1="347.2782" y2="350.7526"/><line style="stroke:#181818;stroke-width:1.0;" x1="147.0456" x2="150.52" y1="349.9161" y2="342.71"/></g><!--MD5=[ab24791bc37ef6966d04f898d63c4cb6]
link Profil to Image--><g id="link_Profil_Image"><path codeLine="72" d="M193.61,350.29 C202.22,373.98 212.39,401.95 221.56,427.17 " fill="none" id="Profil-Image" style="stroke:#181818;stroke-width:1.0;"/><line style="stroke:#181818;stroke-width:1.0;" x1="220.6156" x2="224.37" y1="424.5606" y2="434.9"/><ellipse cx="220.6156" cy="424.5606" fill="none" rx="4" ry="4" style="stroke:#181818;stroke-width:1.0;"/><line style="stroke:#181818;stroke-width:1.0;" x1="226.7645" x2="219.245" y1="429.775" y2="432.5055"/><line style="stroke:#181818;stroke-width:1.0;" x1="188.4609" x2="195.9776" y1="347.8376" y2="345.0991"/><line style="stroke:#181818;stroke-width:1.0;" x1="189.4879" x2="197.0045" y1="350.6564" y2="347.9178"/><line style="stroke:#181818;stroke-width:1.0;" x1="193.5885" x2="190.85" y1="350.2267" y2="342.71"/></g><!--MD5=[68d8d9cbadc78fe52243317fb53f8f07]
link Profil to Rating--><g id="link_Profil_Rating"><path codeLine="73" d="M228.65,348.42 C238.44,357.46 248.66,366.63 258.5,375 C274.41,388.53 310.13,416.03 343.9,441.65 " fill="none" id="Profil-Rating" style="stroke:#181818;stroke-width:1.0;"/><line style="stroke:#181818;stroke-width:1.0;" x1="341.8531" x2="350.62" y1="440.1061" y2="446.75"/><ellipse cx="341.8531" cy="440.1061" fill="none" rx="4" ry="4" style="stroke:#181818;stroke-width:1.0;"/><line style="stroke:#181818;stroke-width:1.0;" x1="349.848" x2="345.0161" y1="441.1461" y2="447.522"/><line style="stroke:#181818;stroke-width:1.0;" x1="222.8273" x2="228.2731" y1="348.4631" y2="342.6027"/><line style="stroke:#181818;stroke-width:1.0;" x1="225.0249" x2="230.4707" y1="350.5052" y2="344.6449"/><line style="stroke:#181818;stroke-width:1.0;" x1="228.4803" x2="222.62" y1="348.2558" y2="342.81"/></g><!--MD5=[37ba480a28a196584fcc6a259012f03b]
link Menu to Review--><g id="link_Menu_Review"><path codeLine="74" d="M270.33,360.62 C265.51,365.68 260.54,370.54 255.5,375 C218.39,407.85 202.35,406.93 161.5,435 C157.96,437.43 154.36,439.94 150.74,442.49 " fill="none" id="Menu-Review" style="stroke:#181818;stroke-width:1.0;"/><line style="stroke:#181818;stroke-width:1.0;" x1="153.1736" x2="144.2" y1="440.768" y2="447.13"/><ellipse cx="153.1736" cy="440.768" fill="none" rx="4" ry="4" style="stroke:#181818;stroke-width:1.0;"/><line style="stroke:#181818;stroke-width:1.0;" x1="149.7766" x2="145.1497" y1="448.0797" y2="441.5534"/><line style="stroke:#181818;stroke-width:1.0;" x1="270.2669" x2="276.1273" y1="354.8273" y2="360.2731"/><line style="stroke:#181818;stroke-width:1.0;" x1="268.2248" x2="274.0851" y1="357.0249" y2="362.4707"/><line style="stroke:#181818;stroke-width:1.0;" x1="270.4742" x2="275.92" y1="360.4803" y2="354.62"/></g><!--MD5=[1fc1f9f39954a9241cb70bae50c55d17]
link Menu to Image--><g id="link_Menu_Image"><path codeLine="75" d="M289.47,383.08 C284.14,397.75 278.66,412.8 273.5,426.99 " fill="none" id="Menu-Image" style="stroke:#181818;stroke-width:1.0;"/><line style="stroke:#181818;stroke-width:1.0;" x1="274.4244" x2="270.67" y1="424.4406" y2="434.78"/><ellipse cx="274.4244" cy="424.4406" fill="none" rx="4" ry="4" style="stroke:#181818;stroke-width:1.0;"/><line style="stroke:#181818;stroke-width:1.0;" x1="275.795" x2="268.2755" y1="432.3855" y2="429.655"/><line style="stroke:#181818;stroke-width:1.0;" x1="287.2364" x2="294.7577" y1="377.5377" y2="380.2636"/><line style="stroke:#181818;stroke-width:1.0;" x1="286.2142" x2="293.7354" y1="380.3581" y2="383.0841"/><line style="stroke:#181818;stroke-width:1.0;" x1="289.6341" x2="292.36" y1="382.6613" y2="375.14"/></g><!--MD5=[c91f1a9fbbbeb6049ac20466cd4d5533]
link Menu to Rating--><g id="link_Menu_Rating"><path codeLine="76" d="M363.57,382.36 C372.14,400.17 381.01,418.57 389.08,435.34 " fill="none" id="Menu-Rating" style="stroke:#181818;stroke-width:1.0;"/><line style="stroke:#181818;stroke-width:1.0;" x1="387.9527" x2="392.73" y1="433.0115" y2="442.92"/><ellipse cx="387.9527" cy="433.0115" fill="none" rx="4" ry="4" style="stroke:#181818;stroke-width:1.0;"/><line style="stroke:#181818;stroke-width:1.0;" x1="394.5959" x2="387.3897" y1="437.5797" y2="441.0541"/><line style="stroke:#181818;stroke-width:1.0;" x1="358.22" x2="365.4288" y1="380.4788" y2="377.01"/><line style="stroke:#181818;stroke-width:1.0;" x1="359.5208" x2="366.7296" y1="383.1821" y2="379.7133"/><line style="stroke:#181818;stroke-width:1.0;" x1="363.5588" x2="360.09" y1="382.3488" y2="375.14"/></g><!--MD5=[2a5094ef52be71e4496337959b2945fc]
link MenuType to Menu--><g id="link_MenuType_Menu"><path codeLine="77" d="M323.82,129.03 C323.5,151.47 323.11,178.93 322.75,204.9 " fill="none" id="MenuType-Menu" style="stroke:#181818;stroke-width:1.0;"/><line style="stroke:#181818;stroke-width:1.0;" x1="322.7871" x2="322.63" y1="201.9111" y2="212.91"/><ellipse cx="322.7871" cy="201.9111" fill="none" rx="4" ry="4" style="stroke:#181818;stroke-width:1.0;"/><line style="stroke:#181818;stroke-width:1.0;" x1="326.6867" x2="318.6875" y1="208.9675" y2="208.8533"/><line style="stroke:#181818;stroke-width:1.0;" x1="319.8903" x2="327.8897" y1="124.8297" y2="124.9297"/><line style="stroke:#181818;stroke-width:1.0;" x1="319.8528" x2="327.8522" y1="127.8295" y2="127.9294"/><line style="stroke:#181818;stroke-width:1.0;" x1="323.84" x2="323.94" y1="128.8794" y2="120.88"/></g><!--MD5=[68c6c2c312f07201357e199cf6353b1f]
@startuml
Entity User {
	* pk (Primary Key)
	- -
	username
	e-mail
	password
	permissions
}

Entity Profil {
	* pk
	- -
	Karma
	User (Cascading)
}

Entity Review {
	* pk
	- -
	Profil
	Text
	Likes
	Menu (Cascading)
}

Entity Image {
	* pk
	- -
	Profil
	Image
	Likes
	Menu (Cascading)
}

Entity Menu {
	* pk
	- -
	Name
	Description
	Date
	Vegetarian
	Vegan
	MenuType
}

Entity Rating {
	* pk
	- -
	Profil
	Menu (Cascading)
	Rating
}

Entity MenuType {
	* pk
	- -
	Name
}

Entity Badge {
	* pk
	- -
	Name
	Description
	Image
	Condition_Category
	Count
}

User ||- -|| Profil
Profil ||- -o| Review
Profil ||- -o| Image
Profil ||- -o| Rating
Menu ||- -o| Review
Menu ||- -o| Image
Menu ||- -o| Rating
MenuType ||- -o| Menu
@enduml

PlantUML version 1.2022.7(Mon Aug 22 17:01:30 UTC 2022)
(GPL source distribution)
Java Runtime: OpenJDK Runtime Environment
JVM: OpenJDK 64-Bit Server VM
Default Encoding: UTF-8
Language: en
Country: null
--></g></svg>