<?xml version="1.0" standalone="no"?>
<!DOCTYPE svg PUBLIC "-//W3C//DTD SVG 20010904//EN"
 "http://www.w3.org/TR/2001/REC-SVG-20010904/DTD/svg10.dtd">
<svg version="1.0" xmlns="http://www.w3.org/2000/svg"
 width="251.000000pt" height="251.000000pt" viewBox="0 0 251.000000 251.000000"
 preserveAspectRatio="xMidYMid meet">
<metadata>
Created by potrace 1.14, written by Peter Selinger 2001-2017
</metadata>
<g transform="translate(0.000000,251.000000) scale(0.100000,-0.100000)"
fill="#000000" stroke="none">
<path d="M509 2318 c-5 -11 -7 -70 -24 -553 -12 -318 -16 -420 -21 -545 -16
-398 -14 -424 36 -505 26 -42 91 -101 135 -122 l33 -16 0 -276 c0 -152 1 -282
1 -288 1 -10 30 -13 111 -13 l109 0 0 278 c0 152 0 283 0 289 1 7 18 21 39 32
53 27 108 84 140 145 26 50 27 55 26 221 0 94 -4 247 -8 340 -4 94 -9 217 -11
275 -12 322 -17 461 -20 515 -1 33 -4 97 -5 142 l-3 82 -53 0 c-43 -1 -54 -4
-55 -18 0 -9 -2 -293 -3 -631 -2 -338 -3 -620 -4 -626 -1 -7 -18 -11 -39 -9
-38 1 -38 2 -39 46 -1 24 -5 231 -9 459 -3 228 -8 496 -10 595 l-3 180 -48 3
c-26 2 -51 -1 -55 -5 -5 -5 -11 -168 -14 -363 -3 -195 -8 -454 -10 -575 -2
-121 -4 -247 -5 -280 l0 -60 -40 0 c-38 -1 -40 1 -41 30 0 16 -1 305 -1 641
l-1 611 -54 2 c-29 1 -54 0 -54 -1z"/>
<path d="M1750 2305 c-98 -26 -174 -89 -218 -183 l-27 -57 -3 -882 -3 -882
148 -46 c82 -26 156 -49 166 -51 18 -6 19 -14 17 -131 l-1 -73 110 0 111 0 1
28 c0 37 0 2241 0 2269 -1 23 -3 23 -128 21 -71 -1 -148 -7 -173 -13z"/>
</g>
</svg>
